<svg width="385" height="210" viewBox="0 0 385 210" fill="none" xmlns="http://www.w3.org/2000/svg">
<g clip-path="url(#clip0_6_2)">
<mask id="mask0_6_2" style="mask-type:luminance" maskUnits="userSpaceOnUse" x="107" y="92" width="168" height="20">
<path d="M107.255 92.6667H274.255V111.333H107.255V92.6667Z" fill="white"/>
</mask>
<g mask="url(#mask0_6_2)">
<path d="M190.989 100.396C222.63 100.396 251.708 104.396 274.635 111.094C257.828 100.609 226.661 93.5677 190.989 93.5677C155.318 93.5677 124.146 100.609 107.344 111.094C130.266 104.396 159.349 100.396 190.989 100.396Z" fill="#DAA520"/>
</g>
<mask id="mask1_6_2" style="mask-type:luminance" maskUnits="userSpaceOnUse" x="151" y="0" width="80" height="98">
<path d="M151.667 0.34375H230.333V98H151.667V0.34375Z" fill="white"/>
</mask>
<g mask="url(#mask1_6_2)">
<path d="M173.484 43.0104V94.6667C177.688 94.3854 181.984 94.2031 186.359 94.1302V36.7135C185.984 36.9167 185.604 37.1198 185.224 37.3229C181.307 39.4115 177.386 41.3073 173.484 43.0104ZM217.464 14.6458V95.4271C221.891 95.8854 226.188 96.4583 230.333 97.1302V0.34375C226.833 5.125 222.505 9.94271 217.464 14.6458ZM195.474 94.125C199.844 94.1979 204.146 94.3802 208.344 94.6563V22.3958C204.354 25.5052 200.052 28.5208 195.474 31.3906V94.125ZM151.734 97.1146C155.807 96.4531 160.026 95.8958 164.37 95.4427V46.6667C160.083 48.2292 155.859 49.5521 151.734 50.6302V97.1146Z" fill="#DAA520"/>
</g>
<path d="M13.9312 129.834C16.6916 129.834 19.2437 130.303 21.577 131.23C23.9103 132.162 25.9207 133.475 27.6187 135.167C29.327 136.85 30.6499 138.829 31.5978 141.105C32.5562 143.386 33.0353 145.886 33.0353 148.605C33.0353 151.344 32.5562 153.855 31.5978 156.146C30.6499 158.438 29.327 160.438 27.6187 162.146C25.9207 163.855 23.9103 165.178 21.577 166.105C19.2437 167.037 16.6916 167.501 13.9312 167.501H-0.318848V129.834H13.9312ZM13.7228 159.917C15.8739 159.917 17.7697 159.433 19.4103 158.459C21.0614 157.49 22.353 156.157 23.2853 154.459C24.228 152.751 24.702 150.803 24.702 148.605C24.702 146.428 24.228 144.495 23.2853 142.813C22.353 141.12 21.0614 139.803 19.4103 138.855C17.7697 137.896 15.8739 137.417 13.7228 137.417H7.84782V159.917H13.7228Z" fill="white"/>
<path d="M45.351 159.917H60.3718V167.501H37.1843V129.834H59.7677V137.376H45.351V144.792H58.3718V152.167H45.351V159.917Z" fill="white"/>
<path d="M92.6573 168.313C89.8917 168.313 87.324 167.818 84.949 166.834C82.5844 165.85 80.5219 164.469 78.7615 162.688C77.0115 160.912 75.6469 158.829 74.6782 156.438C73.7042 154.053 73.2198 151.48 73.2198 148.73C73.2198 145.928 73.7042 143.324 74.6782 140.917C75.6469 138.516 77.0115 136.428 78.7615 134.646C80.5219 132.87 82.5844 131.49 84.949 130.501C87.324 129.516 89.8917 129.021 92.6573 129.021C95.699 129.021 98.4907 129.657 101.032 130.917C103.584 132.167 105.725 133.928 107.449 136.188C109.168 138.438 110.314 141.058 110.887 144.042H102.72C101.97 141.824 100.689 140.058 98.8865 138.751C97.0948 137.433 95.0167 136.771 92.6573 136.771C90.5323 136.771 88.6261 137.308 86.949 138.376C85.2667 139.433 83.9334 140.855 82.949 142.646C81.9594 144.438 81.4698 146.469 81.4698 148.73C81.4698 150.98 81.9594 152.995 82.949 154.771C83.9334 156.553 85.2667 157.959 86.949 159.001C88.6261 160.042 90.5323 160.563 92.6573 160.563C95.1261 160.563 97.2615 159.865 99.0532 158.459C100.845 157.058 102.079 155.157 102.762 152.751H111.012C110.428 155.876 109.282 158.605 107.574 160.938C105.876 163.271 103.746 165.084 101.178 166.376C98.6209 167.667 95.7823 168.313 92.6573 168.313Z" fill="white"/>
<path d="M132.358 168.313C129.493 168.313 126.842 167.818 124.4 166.834C121.952 165.85 119.822 164.469 118.004 162.688C116.197 160.912 114.796 158.829 113.796 156.438C112.796 154.053 112.296 151.459 112.296 148.667C112.296 145.865 112.796 143.271 113.796 140.896C114.796 138.511 116.197 136.428 118.004 134.646C119.822 132.87 121.952 131.49 124.4 130.501C126.842 129.516 129.493 129.021 132.358 129.021C135.233 129.021 137.884 129.516 140.316 130.501C142.759 131.49 144.879 132.87 146.671 134.646C148.462 136.428 149.858 138.511 150.858 140.896C151.868 143.271 152.379 145.865 152.379 148.667C152.379 151.459 151.868 154.053 150.858 156.438C149.858 158.829 148.462 160.912 146.671 162.688C144.879 164.469 142.759 165.85 140.316 166.834C137.884 167.818 135.233 168.313 132.358 168.313ZM132.358 160.605C134.618 160.605 136.639 160.094 138.421 159.063C140.197 158.021 141.592 156.605 142.608 154.813C143.634 153.011 144.15 150.959 144.15 148.667C144.15 146.407 143.634 144.37 142.608 142.563C141.592 140.745 140.197 139.324 138.421 138.292C136.639 137.251 134.618 136.73 132.358 136.73C130.134 136.73 128.129 137.251 126.337 138.292C124.546 139.324 123.129 140.745 122.087 142.563C121.046 144.37 120.525 146.407 120.525 148.667C120.525 150.933 121.046 152.975 122.087 154.792C123.129 156.6 124.546 158.021 126.337 159.063C128.129 160.094 130.134 160.605 132.358 160.605Z" fill="white"/>
<path d="M202.586 167.501H194.294L190.586 142.917L179.336 167.438H177.336L166.107 142.917L162.378 167.501H154.044L159.961 129.834H168.148L178.315 152.917L188.544 129.834H196.711L202.586 167.501Z" fill="white"/>
<path d="M220.972 129.834C223.524 129.834 225.794 130.407 227.784 131.542C229.784 132.667 231.373 134.209 232.555 136.167C233.732 138.115 234.326 140.324 234.326 142.792C234.326 145.282 233.742 147.501 232.576 149.459C231.409 151.407 229.815 152.933 227.805 154.042C225.805 155.157 223.524 155.709 220.972 155.709H214.68V167.501H206.513V129.834H220.972ZM220.659 148.188C222.268 148.188 223.565 147.678 224.555 146.646C225.539 145.62 226.034 144.334 226.034 142.792C226.034 141.225 225.539 139.933 224.555 138.917C223.565 137.891 222.268 137.376 220.659 137.376H214.68V148.188H220.659Z" fill="white"/>
<path d="M263.592 129.834V137.417H253.113V167.501H244.926V137.417H234.488V129.834H263.592Z" fill="white"/>
<path d="M291.689 167.501L289.044 160.334H274.044L271.46 167.501H262.835L277.585 129.834H285.273L300.502 167.501H291.689ZM281.523 139.792L276.606 153.251H286.46L281.523 139.792Z" fill="white"/>
<path d="M325.58 147.646C327.231 148.511 328.518 149.725 329.434 151.292C330.351 152.85 330.809 154.626 330.809 156.626C330.809 158.641 330.273 160.475 329.205 162.126C328.148 163.782 326.71 165.094 324.893 166.063C323.085 167.021 321.106 167.501 318.955 167.501H302.934V129.834H318.538C320.689 129.834 322.611 130.261 324.309 131.105C326.018 131.938 327.361 133.094 328.351 134.563C329.335 136.037 329.83 137.688 329.83 139.521C329.83 141.136 329.455 142.662 328.705 144.105C327.955 145.537 326.913 146.719 325.58 147.646ZM321.913 140.813C321.913 139.636 321.538 138.667 320.788 137.917C320.038 137.157 319.018 136.771 317.726 136.771H310.955V144.792H317.726C319.018 144.792 320.038 144.417 320.788 143.667C321.538 142.907 321.913 141.954 321.913 140.813ZM318.163 160.021C319.523 160.021 320.606 159.626 321.413 158.834C322.215 158.042 322.622 157.021 322.622 155.771C322.622 154.553 322.215 153.542 321.413 152.751C320.606 151.959 319.523 151.563 318.163 151.563H310.955V160.021H318.163Z" fill="white"/>
<path d="M343.277 159.917H358.298V167.501H335.11V129.834H357.694V137.376H343.277V144.792H356.298V152.167H343.277V159.917Z" fill="white"/>
<path d="M370.987 159.917H385.404V167.501H362.821V129.834H370.987V159.917Z" fill="white"/>
<path d="M67.3937 192.123C69.2948 192.722 70.6958 193.425 71.6021 194.227C72.5031 195.034 72.9562 196.201 72.9562 197.727C72.9562 199.092 72.6489 200.284 72.0396 201.31C71.425 202.326 70.5708 203.102 69.4771 203.644C68.3937 204.185 67.1854 204.456 65.8521 204.456C63.8104 204.456 61.8312 204.05 59.9146 203.227V198.29H60.6646C61.0916 198.29 61.3208 198.54 61.3521 199.04L61.4979 202.227C62.2739 202.56 62.9771 202.79 63.6021 202.915C64.2271 203.04 64.9979 203.102 65.9146 203.102C67.6073 203.102 68.9562 202.644 69.9562 201.727C70.9562 200.8 71.4562 199.55 71.4562 197.977C71.4562 197.034 71.2375 196.29 70.8104 195.748C70.3937 195.196 69.8208 194.748 69.1021 194.415C68.3781 194.081 67.3156 193.696 65.9146 193.248C63.9666 192.639 62.55 191.925 61.6646 191.102C60.7896 190.284 60.3521 189.092 60.3521 187.519C60.3521 186.394 60.6281 185.404 61.1854 184.54C61.7531 183.665 62.5239 182.993 63.4979 182.519C64.4666 182.05 65.5604 181.81 66.7687 181.81C68.5604 181.81 70.4562 182.243 72.4562 183.102V188.04H71.7062C71.2896 188.04 71.0604 187.79 71.0187 187.29L70.8729 183.915C69.6333 183.389 68.2687 183.123 66.7687 183.123C65.3208 183.123 64.1333 183.529 63.2062 184.331C62.2739 185.123 61.8104 186.154 61.8104 187.415C61.8104 188.279 62.0291 188.993 62.4771 189.56C62.9354 190.118 63.5396 190.581 64.2896 190.956C65.0396 191.321 66.0708 191.706 67.3937 192.123Z" fill="white"/>
<path d="M82.5483 188.352C84.7566 188.352 86.4858 189.092 87.7358 190.56C88.9858 192.034 89.6108 193.988 89.6108 196.415C89.6108 198.863 88.9858 200.805 87.7358 202.248C86.4858 203.68 84.7566 204.394 82.5483 204.394C80.2827 204.394 78.5275 203.675 77.2775 202.227C76.0275 200.769 75.4025 198.831 75.4025 196.415C75.4025 193.988 76.0327 192.034 77.2983 190.56C78.5587 189.092 80.3087 188.352 82.5483 188.352ZM82.5483 203.227C84.3816 203.227 85.7618 202.623 86.6941 201.415C87.6212 200.196 88.09 198.529 88.09 196.415C88.09 194.321 87.6212 192.654 86.6941 191.415C85.7618 190.18 84.3816 189.56 82.5483 189.56C80.6837 189.56 79.2879 190.175 78.3608 191.394C77.4285 192.602 76.965 194.279 76.965 196.415C76.965 198.529 77.4233 200.196 78.34 201.415C79.267 202.623 80.6733 203.227 82.5483 203.227Z" fill="white"/>
<path d="M97.7246 203.019C98.1413 203.06 98.3496 203.248 98.3496 203.581V204.206H92.3496V203.581C92.3496 203.248 92.5579 203.06 92.9746 203.019L94.5996 202.956V182.665L92.9746 182.602C92.5579 182.56 92.3496 182.373 92.3496 182.04V181.415H96.0996V202.956L97.7246 203.019Z" fill="white"/>
<path d="M113.626 203.019C114.043 203.06 114.251 203.248 114.251 203.581V204.206H111.605C111.272 204.206 111.069 204.06 111.001 203.769L110.793 201.769C109.735 202.743 108.798 203.435 107.98 203.852C107.157 204.253 106.152 204.456 104.959 204.456C103.709 204.456 102.699 204.097 101.939 203.373C101.173 202.654 100.793 201.665 100.793 200.415C100.793 198.748 101.793 197.555 103.793 196.831C105.803 196.097 108.116 195.717 110.73 195.685V194.06C110.73 192.602 110.418 191.493 109.793 190.727C109.178 189.967 108.256 189.581 107.022 189.581C106.272 189.581 105.506 189.748 104.73 190.081C103.965 190.404 103.355 190.79 102.897 191.248C102.657 191.472 102.439 191.581 102.23 191.581C102.064 191.581 101.928 191.493 101.834 191.31L101.584 190.831C102.418 189.998 103.282 189.383 104.189 188.977C105.105 188.56 106.105 188.352 107.189 188.352C108.824 188.352 110.069 188.873 110.918 189.915C111.761 190.946 112.189 192.326 112.189 194.06V202.977L113.626 203.019ZM110.73 196.685C108.465 196.717 106.48 197.008 104.772 197.56C103.074 198.102 102.23 199.05 102.23 200.394C102.23 201.326 102.506 202.055 103.064 202.581C103.616 203.097 104.376 203.352 105.334 203.352C106.485 203.352 107.439 203.154 108.189 202.748C108.939 202.347 109.782 201.675 110.73 200.727V196.685Z" fill="white"/>
<path d="M123.062 188.352C123.687 188.352 124.296 188.446 124.895 188.623C125.505 188.79 126.041 189.019 126.499 189.31H130.499V189.831C130.499 190.071 130.354 190.206 130.062 190.248L127.687 190.435C128.02 190.894 128.255 191.363 128.395 191.831C128.531 192.29 128.604 192.805 128.604 193.373C128.604 194.904 128.083 196.113 127.041 196.998C126.01 197.873 124.687 198.31 123.062 198.31C122.072 198.31 121.255 198.185 120.604 197.935C120.187 198.175 119.843 198.456 119.583 198.79C119.333 199.123 119.208 199.472 119.208 199.831C119.208 200.347 119.416 200.727 119.833 200.977C120.249 201.227 120.796 201.394 121.479 201.477C122.171 201.56 123.249 201.639 124.708 201.706C126.525 201.79 127.895 202.06 128.812 202.519C129.729 202.977 130.187 203.826 130.187 205.06C130.187 206.06 129.859 206.935 129.208 207.685C128.551 208.435 127.676 209.008 126.583 209.415C125.499 209.831 124.364 210.04 123.187 210.04C121.364 210.04 119.801 209.67 118.499 208.935C117.192 208.196 116.541 207.165 116.541 205.831C116.541 204.982 116.817 204.269 117.374 203.685C117.942 203.092 118.687 202.639 119.604 202.331C118.979 202.123 118.541 201.852 118.291 201.519C118.041 201.185 117.916 200.748 117.916 200.206C117.916 199.68 118.109 199.175 118.499 198.685C118.9 198.185 119.343 197.81 119.833 197.56C119.083 197.133 118.499 196.555 118.083 195.831C117.676 195.097 117.479 194.279 117.479 193.373C117.479 191.831 118.005 190.613 119.062 189.706C120.13 188.805 121.463 188.352 123.062 188.352ZM123.062 197.31C124.322 197.31 125.338 196.967 126.104 196.269C126.864 195.576 127.249 194.613 127.249 193.373C127.249 192.18 126.859 191.227 126.083 190.519C125.317 189.81 124.312 189.456 123.062 189.456C121.781 189.456 120.76 189.81 119.999 190.519C119.234 191.217 118.854 192.175 118.854 193.394C118.854 194.618 119.234 195.576 119.999 196.269C120.76 196.967 121.781 197.31 123.062 197.31ZM128.854 205.269C128.854 204.352 128.437 203.748 127.604 203.456C126.781 203.165 125.645 202.977 124.187 202.894C122.531 202.826 121.354 202.727 120.645 202.602C119.77 202.935 119.088 203.368 118.604 203.894C118.13 204.42 117.895 205.019 117.895 205.685C117.895 206.779 118.437 207.586 119.52 208.102C120.604 208.628 121.833 208.894 123.208 208.894C124.749 208.894 126.072 208.566 127.187 207.915C128.296 207.258 128.854 206.378 128.854 205.269Z" fill="white"/>
<path d="M149.508 203.019C149.925 203.06 150.133 203.248 150.133 203.581V204.206H146.383V194.248C146.383 192.79 146.05 191.654 145.383 190.831C144.716 189.998 143.696 189.581 142.321 189.581C140.331 189.581 138.597 190.56 137.112 192.519V202.956L138.779 203.019C139.164 203.034 139.362 203.222 139.362 203.581V204.206H133.383V203.581C133.383 203.222 133.581 203.034 133.987 203.019L135.633 202.956V189.831L133.946 189.769C133.737 189.758 133.581 189.706 133.487 189.623C133.404 189.54 133.362 189.404 133.362 189.206V188.623H136.446C136.737 188.623 136.894 188.748 136.925 188.998L137.05 191.373C138.618 189.389 140.498 188.394 142.696 188.394C144.373 188.394 145.659 188.915 146.55 189.956C147.435 190.998 147.883 192.43 147.883 194.248V202.956L149.508 203.019Z" fill="white"/>
<path d="M165.534 203.019C165.951 203.06 166.159 203.248 166.159 203.581V204.206H163.513C163.18 204.206 162.977 204.06 162.909 203.769L162.701 201.769C161.643 202.743 160.706 203.435 159.888 203.852C159.065 204.253 158.06 204.456 156.867 204.456C155.617 204.456 154.607 204.097 153.847 203.373C153.081 202.654 152.701 201.665 152.701 200.415C152.701 198.748 153.701 197.555 155.701 196.831C157.711 196.097 160.024 195.717 162.638 195.685V194.06C162.638 192.602 162.326 191.493 161.701 190.727C161.086 189.967 160.164 189.581 158.93 189.581C158.18 189.581 157.414 189.748 156.638 190.081C155.873 190.404 155.263 190.79 154.805 191.248C154.565 191.472 154.347 191.581 154.138 191.581C153.972 191.581 153.836 191.493 153.742 191.31L153.492 190.831C154.326 189.998 155.19 189.383 156.097 188.977C157.013 188.56 158.013 188.352 159.097 188.352C160.732 188.352 161.977 188.873 162.826 189.915C163.669 190.946 164.097 192.326 164.097 194.06V202.977L165.534 203.019ZM162.638 196.685C160.373 196.717 158.388 197.008 156.68 197.56C154.982 198.102 154.138 199.05 154.138 200.394C154.138 201.326 154.414 202.055 154.972 202.581C155.524 203.097 156.284 203.352 157.242 203.352C158.393 203.352 159.347 203.154 160.097 202.748C160.847 202.347 161.69 201.675 162.638 200.727V196.685Z" fill="white"/>
<path d="M184.952 181.79C185.812 181.79 186.629 181.988 187.411 182.373C188.187 182.748 188.817 183.279 189.307 183.956C189.807 184.639 190.077 185.394 190.119 186.227L189.307 186.352H189.202C188.978 186.352 188.833 186.248 188.765 186.04C188.583 185.165 188.129 184.435 187.411 183.852C186.687 183.269 185.869 182.977 184.952 182.977C183.702 182.977 182.687 183.347 181.911 184.081C181.145 184.805 180.765 185.743 180.765 186.894C180.765 187.81 180.984 188.644 181.432 189.394C181.874 190.144 182.546 190.972 183.452 191.873L190.432 198.748C191.333 197.29 191.89 195.727 192.098 194.06C192.182 193.769 192.327 193.623 192.536 193.623H193.369C193.353 194.623 193.161 195.665 192.786 196.748C192.411 197.831 191.932 198.8 191.348 199.644L195.973 204.206H194.598C194.442 204.206 194.286 204.185 194.119 204.144C194.02 204.118 193.89 204.019 193.723 203.852L190.515 200.706C189.499 201.889 188.312 202.81 186.952 203.477C185.588 204.133 184.161 204.456 182.661 204.456C181.52 204.456 180.463 204.206 179.494 203.706C178.52 203.206 177.744 202.514 177.161 201.623C176.588 200.722 176.307 199.696 176.307 198.54C176.307 197.055 176.812 195.717 177.827 194.519C178.838 193.31 180.088 192.43 181.577 191.873C180.827 191.014 180.27 190.201 179.911 189.435C179.546 188.659 179.369 187.821 179.369 186.915C179.369 185.873 179.609 184.972 180.098 184.206C180.598 183.43 181.27 182.831 182.119 182.415C182.978 181.998 183.921 181.79 184.952 181.79ZM177.807 198.435C177.807 199.383 178.036 200.222 178.494 200.956C178.952 201.68 179.567 202.243 180.348 202.644C181.14 203.034 181.984 203.227 182.89 203.227C185.557 203.227 187.807 202.118 189.64 199.894L182.286 192.644C180.978 193.175 179.9 193.956 179.057 194.998C178.223 196.04 177.807 197.185 177.807 198.435Z" fill="white"/>
<path d="M227.412 203.019C227.621 203.034 227.766 203.081 227.85 203.165C227.944 203.248 227.996 203.389 227.996 203.581V204.206H222.016V203.581C222.016 203.389 222.063 203.248 222.162 203.165C222.256 203.081 222.412 203.034 222.621 203.019L224.079 202.977L221.746 196.935H211.037L208.683 202.956L210.246 203.019C210.454 203.034 210.605 203.081 210.704 203.165C210.798 203.248 210.85 203.389 210.85 203.581V204.206H204.871V203.581C204.871 203.389 204.912 203.248 204.996 203.165C205.089 203.081 205.246 203.034 205.454 203.019L206.954 202.956L215.537 182.04H217.225L225.808 202.956L227.412 203.019ZM221.246 195.748L216.891 184.977L216.391 183.581L215.891 184.977L211.537 195.748H221.246Z" fill="white"/>
<path d="M240.55 199.644C240.55 201.102 240.03 202.269 238.988 203.144C237.957 204.019 236.655 204.456 235.071 204.456C233.571 204.456 232.035 204.165 230.467 203.581V199.79H231.217C231.66 199.79 231.889 200.04 231.905 200.54L232.092 202.852C232.91 203.185 233.925 203.352 235.134 203.352C236.285 203.352 237.243 203.04 238.009 202.415C238.769 201.79 239.155 200.951 239.155 199.894C239.155 199.034 238.8 198.383 238.092 197.935C237.394 197.477 236.3 197.034 234.8 196.602C233.368 196.201 232.285 195.706 231.55 195.123C230.826 194.529 230.467 193.68 230.467 192.581C230.467 191.748 230.701 191.019 231.175 190.394C231.644 189.758 232.269 189.264 233.05 188.915C233.842 188.571 234.696 188.394 235.613 188.394C236.79 188.394 238.165 188.665 239.738 189.206V192.935H238.988C238.571 192.935 238.342 192.685 238.3 192.185L238.113 189.935C237.29 189.659 236.467 189.519 235.634 189.519C234.618 189.519 233.738 189.79 232.988 190.331C232.248 190.873 231.884 191.597 231.884 192.498C231.884 193.055 232.056 193.529 232.405 193.915C232.764 194.29 233.227 194.597 233.8 194.831C234.384 195.071 235.181 195.331 236.196 195.623C237.571 196.029 238.639 196.534 239.405 197.144C240.165 197.758 240.55 198.592 240.55 199.644Z" fill="white"/>
<path d="M253.919 199.644C253.919 201.102 253.398 202.269 252.356 203.144C251.325 204.019 250.023 204.456 248.439 204.456C246.939 204.456 245.403 204.165 243.835 203.581V199.79H244.585C245.028 199.79 245.257 200.04 245.273 200.54L245.46 202.852C246.278 203.185 247.294 203.352 248.502 203.352C249.653 203.352 250.611 203.04 251.377 202.415C252.137 201.79 252.523 200.951 252.523 199.894C252.523 199.034 252.169 198.383 251.46 197.935C250.762 197.477 249.669 197.034 248.169 196.602C246.736 196.201 245.653 195.706 244.919 195.123C244.195 194.529 243.835 193.68 243.835 192.581C243.835 191.748 244.07 191.019 244.544 190.394C245.012 189.758 245.637 189.264 246.419 188.915C247.21 188.571 248.064 188.394 248.981 188.394C250.158 188.394 251.533 188.665 253.106 189.206V192.935H252.356C251.939 192.935 251.71 192.685 251.669 192.185L251.481 189.935C250.658 189.659 249.835 189.519 249.002 189.519C247.986 189.519 247.106 189.79 246.356 190.331C245.617 190.873 245.252 191.597 245.252 192.498C245.252 193.055 245.424 193.529 245.773 193.915C246.132 194.29 246.596 194.597 247.169 194.831C247.752 195.071 248.549 195.331 249.564 195.623C250.939 196.029 252.007 196.534 252.773 197.144C253.533 197.758 253.919 198.592 253.919 199.644Z" fill="white"/>
<path d="M263.475 188.352C265.683 188.352 267.412 189.092 268.662 190.56C269.912 192.034 270.537 193.988 270.537 196.415C270.537 198.863 269.912 200.805 268.662 202.248C267.412 203.68 265.683 204.394 263.475 204.394C261.209 204.394 259.454 203.675 258.204 202.227C256.954 200.769 256.329 198.831 256.329 196.415C256.329 193.988 256.959 192.034 258.225 190.56C259.485 189.092 261.235 188.352 263.475 188.352ZM263.475 203.227C265.308 203.227 266.688 202.623 267.62 201.415C268.547 200.196 269.016 198.529 269.016 196.415C269.016 194.321 268.547 192.654 267.62 191.415C266.688 190.18 265.308 189.56 263.475 189.56C261.61 189.56 260.214 190.175 259.287 191.394C258.355 192.602 257.891 194.279 257.891 196.415C257.891 198.529 258.35 200.196 259.266 201.415C260.193 202.623 261.6 203.227 263.475 203.227Z" fill="white"/>
<path d="M284.942 202.206C284.359 202.93 283.578 203.488 282.609 203.873C281.635 204.248 280.64 204.435 279.63 204.435C278.255 204.435 277.057 204.092 276.047 203.394C275.031 202.685 274.255 201.727 273.713 200.519C273.182 199.3 272.922 197.93 272.922 196.415C272.922 194.847 273.192 193.456 273.734 192.248C274.276 191.04 275.078 190.097 276.151 189.415C277.219 188.738 278.489 188.394 279.963 188.394C281.281 188.394 282.745 188.722 284.359 189.373V193.269H283.609C283.192 193.269 282.963 193.019 282.922 192.519C282.922 192.467 282.901 192.222 282.859 191.79C282.817 191.363 282.776 190.79 282.734 190.081C281.703 189.738 280.817 189.56 280.067 189.56C278.245 189.56 276.859 190.185 275.901 191.435C274.942 192.685 274.463 194.347 274.463 196.415C274.463 198.456 274.927 200.102 275.859 201.352C276.802 202.602 278.13 203.227 279.838 203.227C280.588 203.227 281.328 203.097 282.067 202.831C282.802 202.555 283.38 202.206 283.797 201.79C283.963 201.623 284.114 201.54 284.255 201.54C284.38 201.54 284.474 201.597 284.547 201.706L284.942 202.206Z" fill="white"/>
<path d="M290.667 184.644C290.276 184.644 289.948 184.514 289.688 184.248C289.422 183.972 289.292 183.633 289.292 183.227C289.292 182.852 289.422 182.534 289.688 182.269C289.948 182.008 290.276 181.873 290.667 181.873C291.042 181.873 291.36 182.008 291.625 182.269C291.886 182.534 292.021 182.852 292.021 183.227C292.021 183.633 291.886 183.972 291.625 184.248C291.36 184.514 291.042 184.644 290.667 184.644ZM293.063 203.019C293.479 203.06 293.688 203.248 293.688 203.581V204.206H287.667V203.581C287.667 203.248 287.875 203.06 288.292 203.019L289.917 202.956V189.873L288.292 189.81C287.875 189.769 287.667 189.581 287.667 189.248V188.623H291.438V202.956L293.063 203.019Z" fill="white"/>
<path d="M303.162 188.352C305.063 188.352 306.563 188.993 307.662 190.269C308.756 191.55 309.308 193.201 309.308 195.227C309.308 195.618 309.162 195.81 308.871 195.81H297.621C297.621 198.133 298.1 199.951 299.058 201.269C300.027 202.576 301.475 203.227 303.391 203.227C304.152 203.227 304.959 203.097 305.808 202.831C306.652 202.555 307.319 202.206 307.808 201.79C307.975 201.623 308.141 201.54 308.308 201.54C308.444 201.54 308.548 201.597 308.621 201.706L309.016 202.206C308.475 202.873 307.641 203.409 306.516 203.81C305.402 204.201 304.319 204.394 303.266 204.394C300.944 204.394 299.173 203.633 297.954 202.102C296.73 200.56 296.121 198.56 296.121 196.102C296.121 194.618 296.402 193.29 296.975 192.123C297.558 190.956 298.376 190.04 299.433 189.373C300.501 188.696 301.746 188.352 303.162 188.352ZM303.204 189.498C301.621 189.498 300.35 189.972 299.391 190.915C298.444 191.863 297.876 193.175 297.683 194.852H307.954C307.954 193.217 307.522 191.915 306.662 190.956C305.798 189.988 304.647 189.498 303.204 189.498ZM303.141 185.769C303.058 185.852 302.975 185.925 302.891 185.977C302.808 186.019 302.704 186.04 302.579 186.04H301.662L304.141 182.29C304.266 182.097 304.397 181.967 304.537 181.894C304.673 181.826 304.85 181.79 305.058 181.79H306.516L303.141 185.769Z" fill="white"/>
<path d="M322.639 199.644C322.639 201.102 322.118 202.269 321.076 203.144C320.045 204.019 318.743 204.456 317.16 204.456C315.66 204.456 314.123 204.165 312.555 203.581V199.79H313.305C313.748 199.79 313.977 200.04 313.993 200.54L314.18 202.852C314.998 203.185 316.014 203.352 317.222 203.352C318.373 203.352 319.331 203.04 320.097 202.415C320.858 201.79 321.243 200.951 321.243 199.894C321.243 199.034 320.889 198.383 320.18 197.935C319.483 197.477 318.389 197.034 316.889 196.602C315.456 196.201 314.373 195.706 313.639 195.123C312.915 194.529 312.555 193.68 312.555 192.581C312.555 191.748 312.79 191.019 313.264 190.394C313.733 189.758 314.358 189.264 315.139 188.915C315.93 188.571 316.785 188.394 317.701 188.394C318.878 188.394 320.253 188.665 321.826 189.206V192.935H321.076C320.66 192.935 320.43 192.685 320.389 192.185L320.201 189.935C319.378 189.659 318.555 189.519 317.722 189.519C316.706 189.519 315.826 189.79 315.076 190.331C314.337 190.873 313.972 191.597 313.972 192.498C313.972 193.055 314.144 193.529 314.493 193.915C314.852 194.29 315.316 194.597 315.889 194.831C316.472 195.071 317.269 195.331 318.285 195.623C319.66 196.029 320.727 196.534 321.493 197.144C322.253 197.758 322.639 198.592 322.639 199.644Z" fill="white"/>
</g>
<defs>
<clipPath id="clip0_6_2">
<rect width="385" height="210" fill="white"/>
</clipPath>
</defs>
</svg>
