<svg xmlns="http://www.w3.org/2000/svg" xmlns:xlink="http://www.w3.org/1999/xlink" width="500" zoomAndPan="magnify" viewBox="0 0 375 374.999991" height="500" preserveAspectRatio="xMidYMid meet" version="1.0"><defs><g/><clipPath id="3f1fe67780"><path d="M 124.691406 176 L 249.941406 176 L 249.941406 190 L 124.691406 190 Z M 124.691406 176 " clip-rule="nonzero"/></clipPath><clipPath id="2ff35c6ef9"><path d="M 158 106.757812 L 217 106.757812 L 217 180 L 158 180 Z M 158 106.757812 " clip-rule="nonzero"/></clipPath></defs><g clip-path="url(#3f1fe67780)"><path fill="#DAA520" d="M 187.492188 181.796875 C 211.222656 181.796875 233.03125 184.796875 250.226562 189.820312 C 237.621094 181.957031 214.246094 176.675781 187.492188 176.675781 C 160.738281 176.675781 137.359375 181.957031 124.757812 189.820312 C 141.949219 184.796875 163.761719 181.796875 187.492188 181.796875 " fill-opacity="1" fill-rule="nonzero"/></g><g clip-path="url(#2ff35c6ef9)"><path fill="#daa520" d="M 174.363281 138.757812 L 174.363281 177.5 C 177.515625 177.289062 180.738281 177.152344 184.019531 177.097656 L 184.019531 134.035156 C 183.738281 134.1875 183.453125 134.339844 183.167969 134.492188 C 180.230469 136.058594 177.289062 137.480469 174.363281 138.757812 Z M 207.347656 117.484375 L 207.347656 178.070312 C 210.667969 178.414062 213.890625 178.84375 217 179.347656 L 217 106.757812 C 214.375 110.34375 211.128906 113.957031 207.347656 117.484375 Z M 190.855469 177.09375 C 194.132812 177.148438 197.359375 177.285156 200.507812 177.492188 L 200.507812 123.296875 C 197.515625 125.628906 194.289062 127.890625 190.855469 130.042969 Z M 158.050781 179.335938 C 161.105469 178.839844 164.269531 178.421875 167.527344 178.082031 L 167.527344 141.5 C 164.3125 142.671875 161.144531 143.664062 158.050781 144.472656 L 158.050781 179.335938 " fill-opacity="1" fill-rule="nonzero"/></g><g fill="#ffffff" fill-opacity="1"><g transform="translate(40.776479, 232.125446)"><g><path d="M 13.921875 -28.25 C 15.992188 -28.25 17.90625 -27.898438 19.65625 -27.203125 C 21.40625 -26.503906 22.914062 -25.519531 24.1875 -24.25 C 25.46875 -22.988281 26.460938 -21.503906 27.171875 -19.796875 C 27.890625 -18.085938 28.25 -16.210938 28.25 -14.171875 C 28.25 -12.117188 27.890625 -10.234375 27.171875 -8.515625 C 26.460938 -6.796875 25.46875 -5.296875 24.1875 -4.015625 C 22.914062 -2.734375 21.40625 -1.742188 19.65625 -1.046875 C 17.90625 -0.347656 15.992188 0 13.921875 0 L 3.234375 0 L 3.234375 -28.25 Z M 13.765625 -5.6875 C 15.378906 -5.6875 16.800781 -6.050781 18.03125 -6.78125 C 19.269531 -7.507812 20.238281 -8.507812 20.9375 -9.78125 C 21.644531 -11.0625 22 -12.523438 22 -14.171875 C 22 -15.804688 21.644531 -17.253906 20.9375 -18.515625 C 20.238281 -19.785156 19.269531 -20.773438 18.03125 -21.484375 C 16.800781 -22.203125 15.378906 -22.5625 13.765625 -22.5625 L 9.359375 -22.5625 L 9.359375 -5.6875 Z M 13.765625 -5.6875 "/></g></g></g><g fill="#ffffff" fill-opacity="1"><g transform="translate(68.903821, 232.125446)"><g><path d="M 9.359375 -5.6875 L 20.625 -5.6875 L 20.625 0 L 3.234375 0 L 3.234375 -28.25 L 20.171875 -28.25 L 20.171875 -22.59375 L 9.359375 -22.59375 L 9.359375 -17.03125 L 19.125 -17.03125 L 19.125 -11.5 L 9.359375 -11.5 Z M 9.359375 -5.6875 "/></g></g></g><g fill="#ffffff" fill-opacity="1"><g transform="translate(89.68651, 232.125446)"><g/></g></g><g fill="#ffffff" fill-opacity="1"><g transform="translate(97.555523, 232.125446)"><g><path d="M 16.1875 0.609375 C 14.113281 0.609375 12.1875 0.238281 10.40625 -0.5 C 8.632812 -1.238281 7.085938 -2.273438 5.765625 -3.609375 C 4.453125 -4.941406 3.429688 -6.503906 2.703125 -8.296875 C 1.972656 -10.085938 1.609375 -12.015625 1.609375 -14.078125 C 1.609375 -16.179688 1.972656 -18.132812 2.703125 -19.9375 C 3.429688 -21.738281 4.453125 -23.304688 5.765625 -24.640625 C 7.085938 -25.972656 8.632812 -27.007812 10.40625 -27.75 C 12.1875 -28.488281 14.113281 -28.859375 16.1875 -28.859375 C 18.46875 -28.859375 20.5625 -28.382812 22.46875 -27.4375 C 24.382812 -26.5 25.988281 -25.179688 27.28125 -23.484375 C 28.570312 -21.796875 29.429688 -19.832031 29.859375 -17.59375 L 23.734375 -17.59375 C 23.171875 -19.257812 22.210938 -20.582031 20.859375 -21.5625 C 19.515625 -22.550781 17.957031 -23.046875 16.1875 -23.046875 C 14.59375 -23.046875 13.164062 -22.644531 11.90625 -21.84375 C 10.644531 -21.050781 9.644531 -19.984375 8.90625 -18.640625 C 8.164062 -17.296875 7.796875 -15.773438 7.796875 -14.078125 C 7.796875 -12.390625 8.164062 -10.878906 8.90625 -9.546875 C 9.644531 -8.210938 10.644531 -7.15625 11.90625 -6.375 C 13.164062 -5.59375 14.59375 -5.203125 16.1875 -5.203125 C 18.039062 -5.203125 19.640625 -5.726562 20.984375 -6.78125 C 22.328125 -7.832031 23.253906 -9.257812 23.765625 -11.0625 L 29.953125 -11.0625 C 29.515625 -8.71875 28.65625 -6.671875 27.375 -4.921875 C 26.101562 -3.171875 24.503906 -1.8125 22.578125 -0.84375 C 20.660156 0.125 18.53125 0.609375 16.1875 0.609375 Z M 16.1875 0.609375 "/></g></g></g><g fill="#ffffff" fill-opacity="1"><g transform="translate(126.893525, 232.125446)"><g><path d="M 16.625 0.609375 C 14.476562 0.609375 12.488281 0.238281 10.65625 -0.5 C 8.820312 -1.238281 7.222656 -2.273438 5.859375 -3.609375 C 4.503906 -4.941406 3.453125 -6.503906 2.703125 -8.296875 C 1.953125 -10.085938 1.578125 -12.03125 1.578125 -14.125 C 1.578125 -16.226562 1.953125 -18.171875 2.703125 -19.953125 C 3.453125 -21.742188 4.503906 -23.304688 5.859375 -24.640625 C 7.222656 -25.972656 8.820312 -27.007812 10.65625 -27.75 C 12.488281 -28.488281 14.476562 -28.859375 16.625 -28.859375 C 18.78125 -28.859375 20.769531 -28.488281 22.59375 -27.75 C 24.425781 -27.007812 26.015625 -25.972656 27.359375 -24.640625 C 28.703125 -23.304688 29.75 -21.742188 30.5 -19.953125 C 31.257812 -18.171875 31.640625 -16.226562 31.640625 -14.125 C 31.640625 -12.03125 31.257812 -10.085938 30.5 -8.296875 C 29.75 -6.503906 28.703125 -4.941406 27.359375 -3.609375 C 26.015625 -2.273438 24.425781 -1.238281 22.59375 -0.5 C 20.769531 0.238281 18.78125 0.609375 16.625 0.609375 Z M 16.625 -5.171875 C 18.320312 -5.171875 19.835938 -5.554688 21.171875 -6.328125 C 22.503906 -7.109375 23.550781 -8.171875 24.3125 -9.515625 C 25.082031 -10.867188 25.46875 -12.40625 25.46875 -14.125 C 25.46875 -15.820312 25.082031 -17.347656 24.3125 -18.703125 C 23.550781 -20.066406 22.503906 -21.132812 21.171875 -21.90625 C 19.835938 -22.6875 18.320312 -23.078125 16.625 -23.078125 C 14.957031 -23.078125 13.453125 -22.6875 12.109375 -21.90625 C 10.765625 -21.132812 9.703125 -20.066406 8.921875 -18.703125 C 8.140625 -17.347656 7.75 -15.820312 7.75 -14.125 C 7.75 -12.425781 8.140625 -10.894531 8.921875 -9.53125 C 9.703125 -8.175781 10.765625 -7.109375 12.109375 -6.328125 C 13.453125 -5.554688 14.957031 -5.171875 16.625 -5.171875 Z M 16.625 -5.171875 "/></g></g></g><g fill="#ffffff" fill-opacity="1"><g transform="translate(158.330002, 232.125446)"><g><path d="M 37.859375 0 L 31.640625 0 L 28.859375 -18.4375 L 20.421875 -0.046875 L 18.921875 -0.046875 L 10.5 -18.4375 L 7.703125 0 L 1.453125 0 L 5.890625 -28.25 L 12.03125 -28.25 L 19.65625 -10.9375 L 27.328125 -28.25 L 33.453125 -28.25 Z M 37.859375 0 "/></g></g></g><g fill="#ffffff" fill-opacity="1"><g transform="translate(195.90047, 232.125446)"><g><path d="M 14.078125 -28.25 C 15.992188 -28.25 17.695312 -27.820312 19.1875 -26.96875 C 20.6875 -26.125 21.878906 -24.96875 22.765625 -23.5 C 23.648438 -22.039062 24.09375 -20.382812 24.09375 -18.53125 C 24.09375 -16.664062 23.65625 -15 22.78125 -13.53125 C 21.90625 -12.070312 20.710938 -10.925781 19.203125 -10.09375 C 17.703125 -9.257812 15.992188 -8.84375 14.078125 -8.84375 L 9.359375 -8.84375 L 9.359375 0 L 3.234375 0 L 3.234375 -28.25 Z M 13.84375 -14.484375 C 15.050781 -14.484375 16.023438 -14.867188 16.765625 -15.640625 C 17.503906 -16.410156 17.875 -17.375 17.875 -18.53125 C 17.875 -19.707031 17.503906 -20.675781 16.765625 -21.4375 C 16.023438 -22.207031 15.050781 -22.59375 13.84375 -22.59375 L 9.359375 -22.59375 L 9.359375 -14.484375 Z M 13.84375 -14.484375 "/></g></g></g><g fill="#ffffff" fill-opacity="1"><g transform="translate(219.225533, 232.125446)"><g><path d="M 22.71875 -28.25 L 22.71875 -22.5625 L 14.859375 -22.5625 L 14.859375 0 L 8.71875 0 L 8.71875 -22.5625 L 0.890625 -22.5625 L 0.890625 -28.25 Z M 22.71875 -28.25 "/></g></g></g><g fill="#ffffff" fill-opacity="1"><g transform="translate(241.017106, 232.125446)"><g><path d="M 22 0 L 20.015625 -5.375 L 8.765625 -5.375 L 6.828125 0 L 0.359375 0 L 11.421875 -28.25 L 17.1875 -28.25 L 28.609375 0 Z M 14.375 -20.78125 L 10.6875 -10.6875 L 18.078125 -10.6875 Z M 14.375 -20.78125 "/></g></g></g><g fill="#ffffff" fill-opacity="1"><g transform="translate(268.216272, 232.125446)"><g><path d="M 20.21875 -14.890625 C 21.457031 -14.242188 22.421875 -13.332031 23.109375 -12.15625 C 23.796875 -10.988281 24.140625 -9.65625 24.140625 -8.15625 C 24.140625 -6.644531 23.738281 -5.269531 22.9375 -4.03125 C 22.144531 -2.789062 21.066406 -1.804688 19.703125 -1.078125 C 18.347656 -0.359375 16.863281 0 15.25 0 L 3.234375 0 L 3.234375 -28.25 L 14.9375 -28.25 C 16.550781 -28.25 17.992188 -27.929688 19.265625 -27.296875 C 20.546875 -26.671875 21.554688 -25.804688 22.296875 -24.703125 C 23.035156 -23.597656 23.40625 -22.359375 23.40625 -20.984375 C 23.40625 -19.773438 23.125 -18.628906 22.5625 -17.546875 C 22 -16.472656 21.21875 -15.585938 20.21875 -14.890625 Z M 17.46875 -20.015625 C 17.46875 -20.898438 17.1875 -21.625 16.625 -22.1875 C 16.0625 -22.757812 15.296875 -23.046875 14.328125 -23.046875 L 9.25 -23.046875 L 9.25 -17.03125 L 14.328125 -17.03125 C 15.296875 -17.03125 16.0625 -17.3125 16.625 -17.875 C 17.1875 -18.445312 17.46875 -19.160156 17.46875 -20.015625 Z M 14.65625 -5.609375 C 15.675781 -5.609375 16.488281 -5.90625 17.09375 -6.5 C 17.695312 -7.09375 18 -7.859375 18 -8.796875 C 18 -9.710938 17.695312 -10.46875 17.09375 -11.0625 C 16.488281 -11.65625 15.675781 -11.953125 14.65625 -11.953125 L 9.25 -11.953125 L 9.25 -5.609375 Z M 14.65625 -5.609375 "/></g></g></g><g fill="#ffffff" fill-opacity="1"><g transform="translate(292.348441, 232.125446)"><g><path d="M 9.359375 -5.6875 L 20.625 -5.6875 L 20.625 0 L 3.234375 0 L 3.234375 -28.25 L 20.171875 -28.25 L 20.171875 -22.59375 L 9.359375 -22.59375 L 9.359375 -17.03125 L 19.125 -17.03125 L 19.125 -11.5 L 9.359375 -11.5 Z M 9.359375 -5.6875 "/></g></g></g><g fill="#ffffff" fill-opacity="1"><g transform="translate(313.13113, 232.125446)"><g><path d="M 9.359375 -5.6875 L 20.171875 -5.6875 L 20.171875 0 L 3.234375 0 L 3.234375 -28.25 L 9.359375 -28.25 Z M 9.359375 -5.6875 "/></g></g></g><g fill="#ffffff" fill-opacity="1"><g transform="translate(87.842165, 259.654681)"><g><path d="M 6.953125 -9.0625 C 8.378906 -8.613281 9.429688 -8.085938 10.109375 -7.484375 C 10.785156 -6.878906 11.125 -6.003906 11.125 -4.859375 C 11.125 -3.835938 10.894531 -2.941406 10.4375 -2.171875 C 9.976562 -1.410156 9.335938 -0.828125 8.515625 -0.421875 C 7.703125 -0.015625 6.796875 0.1875 5.796875 0.1875 C 4.265625 0.1875 2.78125 -0.117188 1.34375 -0.734375 L 1.34375 -4.4375 L 1.90625 -4.4375 C 2.226562 -4.4375 2.398438 -4.25 2.421875 -3.875 L 2.53125 -1.484375 C 3.113281 -1.234375 3.640625 -1.0625 4.109375 -0.96875 C 4.578125 -0.875 5.15625 -0.828125 5.84375 -0.828125 C 7.113281 -0.828125 8.125 -1.171875 8.875 -1.859375 C 9.625 -2.554688 10 -3.492188 10 -4.671875 C 10 -5.378906 9.835938 -5.9375 9.515625 -6.34375 C 9.203125 -6.757812 8.773438 -7.09375 8.234375 -7.34375 C 7.691406 -7.59375 6.894531 -7.882812 5.84375 -8.21875 C 4.382812 -8.675781 3.320312 -9.210938 2.65625 -9.828125 C 2 -10.441406 1.671875 -11.335938 1.671875 -12.515625 C 1.671875 -13.359375 1.878906 -14.101562 2.296875 -14.75 C 2.722656 -15.40625 3.300781 -15.910156 4.03125 -16.265625 C 4.757812 -16.617188 5.578125 -16.796875 6.484375 -16.796875 C 7.828125 -16.796875 9.25 -16.472656 10.75 -15.828125 L 10.75 -12.125 L 10.1875 -12.125 C 9.875 -12.125 9.703125 -12.3125 9.671875 -12.6875 L 9.5625 -15.21875 C 8.632812 -15.613281 7.609375 -15.8125 6.484375 -15.8125 C 5.398438 -15.8125 4.507812 -15.507812 3.8125 -14.90625 C 3.113281 -14.3125 2.765625 -13.539062 2.765625 -12.59375 C 2.765625 -11.945312 2.929688 -11.410156 3.265625 -10.984375 C 3.609375 -10.566406 4.0625 -10.21875 4.625 -9.9375 C 5.1875 -9.664062 5.960938 -9.375 6.953125 -9.0625 Z M 6.953125 -9.0625 "/></g></g></g><g fill="#ffffff" fill-opacity="1"><g transform="translate(99.911222, 259.654681)"><g><path d="M 6.25 -11.890625 C 7.90625 -11.890625 9.203125 -11.335938 10.140625 -10.234375 C 11.078125 -9.128906 11.546875 -7.664062 11.546875 -5.84375 C 11.546875 -4.007812 11.078125 -2.550781 10.140625 -1.46875 C 9.203125 -0.394531 7.90625 0.140625 6.25 0.140625 C 4.550781 0.140625 3.234375 -0.398438 2.296875 -1.484375 C 1.359375 -2.578125 0.890625 -4.03125 0.890625 -5.84375 C 0.890625 -7.664062 1.363281 -9.128906 2.3125 -10.234375 C 3.257812 -11.335938 4.570312 -11.890625 6.25 -11.890625 Z M 6.25 -0.734375 C 7.625 -0.734375 8.660156 -1.1875 9.359375 -2.09375 C 10.054688 -3.007812 10.40625 -4.257812 10.40625 -5.84375 C 10.40625 -7.414062 10.054688 -8.664062 9.359375 -9.59375 C 8.660156 -10.519531 7.625 -10.984375 6.25 -10.984375 C 4.851562 -10.984375 3.804688 -10.523438 3.109375 -9.609375 C 2.410156 -8.703125 2.0625 -7.445312 2.0625 -5.84375 C 2.0625 -4.257812 2.40625 -3.007812 3.09375 -2.09375 C 3.789062 -1.1875 4.84375 -0.734375 6.25 -0.734375 Z M 6.25 -0.734375 "/></g></g></g><g fill="#ffffff" fill-opacity="1"><g transform="translate(112.355961, 259.654681)"><g><path d="M 5.1875 -0.890625 C 5.5 -0.859375 5.65625 -0.71875 5.65625 -0.46875 L 5.65625 0 L 1.15625 0 L 1.15625 -0.46875 C 1.15625 -0.71875 1.3125 -0.859375 1.625 -0.890625 L 2.84375 -0.9375 L 2.84375 -16.15625 L 1.625 -16.203125 C 1.3125 -16.234375 1.15625 -16.375 1.15625 -16.625 L 1.15625 -17.09375 L 3.96875 -17.09375 L 3.96875 -0.9375 Z M 5.1875 -0.890625 "/></g></g></g><g fill="#ffffff" fill-opacity="1"><g transform="translate(118.907059, 259.654681)"><g><path d="M 10.5625 -0.890625 C 10.875 -0.859375 11.03125 -0.71875 11.03125 -0.46875 L 11.03125 0 L 9.046875 0 C 8.796875 0 8.644531 -0.109375 8.59375 -0.328125 L 8.4375 -1.828125 C 7.644531 -1.097656 6.941406 -0.578125 6.328125 -0.265625 C 5.710938 0.0351562 4.957031 0.1875 4.0625 0.1875 C 3.125 0.1875 2.367188 -0.0820312 1.796875 -0.625 C 1.222656 -1.164062 0.9375 -1.90625 0.9375 -2.84375 C 0.9375 -4.09375 1.6875 -4.988281 3.1875 -5.53125 C 4.695312 -6.082031 6.429688 -6.367188 8.390625 -6.390625 L 8.390625 -7.609375 C 8.390625 -8.703125 8.15625 -9.535156 7.6875 -10.109375 C 7.226562 -10.679688 6.535156 -10.96875 5.609375 -10.96875 C 5.046875 -10.96875 4.472656 -10.84375 3.890625 -10.59375 C 3.316406 -10.351562 2.859375 -10.0625 2.515625 -9.71875 C 2.335938 -9.550781 2.171875 -9.46875 2.015625 -9.46875 C 1.890625 -9.46875 1.789062 -9.535156 1.71875 -9.671875 L 1.53125 -10.03125 C 2.15625 -10.65625 2.804688 -11.117188 3.484375 -11.421875 C 4.171875 -11.734375 4.921875 -11.890625 5.734375 -11.890625 C 6.960938 -11.890625 7.894531 -11.5 8.53125 -10.71875 C 9.164062 -9.945312 9.484375 -8.910156 9.484375 -7.609375 L 9.484375 -0.921875 Z M 8.390625 -5.640625 C 6.691406 -5.617188 5.203125 -5.398438 3.921875 -4.984375 C 2.648438 -4.578125 2.015625 -3.867188 2.015625 -2.859375 C 2.015625 -2.160156 2.222656 -1.613281 2.640625 -1.21875 C 3.054688 -0.832031 3.625 -0.640625 4.34375 -0.640625 C 5.207031 -0.640625 5.921875 -0.789062 6.484375 -1.09375 C 7.046875 -1.394531 7.679688 -1.898438 8.390625 -2.609375 Z M 8.390625 -5.640625 "/></g></g></g><g fill="#ffffff" fill-opacity="1"><g transform="translate(130.952635, 259.654681)"><g><path d="M 5.59375 -11.890625 C 6.0625 -11.890625 6.519531 -11.820312 6.96875 -11.6875 C 7.425781 -11.5625 7.828125 -11.390625 8.171875 -11.171875 L 11.171875 -11.171875 L 11.171875 -10.78125 C 11.171875 -10.601562 11.0625 -10.5 10.84375 -10.46875 L 9.0625 -10.328125 C 9.3125 -9.984375 9.488281 -9.632812 9.59375 -9.28125 C 9.695312 -8.9375 9.75 -8.550781 9.75 -8.125 C 9.75 -6.976562 9.359375 -6.070312 8.578125 -5.40625 C 7.804688 -4.75 6.8125 -4.421875 5.59375 -4.421875 C 4.851562 -4.421875 4.238281 -4.515625 3.75 -4.703125 C 3.4375 -4.523438 3.179688 -4.3125 2.984375 -4.0625 C 2.796875 -3.8125 2.703125 -3.550781 2.703125 -3.28125 C 2.703125 -2.894531 2.859375 -2.609375 3.171875 -2.421875 C 3.484375 -2.234375 3.894531 -2.109375 4.40625 -2.046875 C 4.925781 -1.984375 5.734375 -1.925781 6.828125 -1.875 C 8.191406 -1.8125 9.21875 -1.609375 9.90625 -1.265625 C 10.59375 -0.921875 10.9375 -0.285156 10.9375 0.640625 C 10.9375 1.390625 10.691406 2.046875 10.203125 2.609375 C 9.710938 3.171875 9.054688 3.601562 8.234375 3.90625 C 7.421875 4.21875 6.570312 4.375 5.6875 4.375 C 4.320312 4.375 3.148438 4.097656 2.171875 3.546875 C 1.191406 2.992188 0.703125 2.21875 0.703125 1.21875 C 0.703125 0.582031 0.910156 0.046875 1.328125 -0.390625 C 1.753906 -0.835938 2.3125 -1.175781 3 -1.40625 C 2.53125 -1.5625 2.203125 -1.765625 2.015625 -2.015625 C 1.828125 -2.265625 1.734375 -2.59375 1.734375 -3 C 1.734375 -3.394531 1.878906 -3.773438 2.171875 -4.140625 C 2.472656 -4.515625 2.804688 -4.796875 3.171875 -4.984375 C 2.609375 -5.304688 2.171875 -5.738281 1.859375 -6.28125 C 1.554688 -6.832031 1.40625 -7.445312 1.40625 -8.125 C 1.40625 -9.28125 1.800781 -10.195312 2.59375 -10.875 C 3.394531 -11.550781 4.394531 -11.890625 5.59375 -11.890625 Z M 5.59375 -5.171875 C 6.539062 -5.171875 7.300781 -5.429688 7.875 -5.953125 C 8.445312 -6.472656 8.734375 -7.195312 8.734375 -8.125 C 8.734375 -9.019531 8.441406 -9.734375 7.859375 -10.265625 C 7.285156 -10.796875 6.53125 -11.0625 5.59375 -11.0625 C 4.632812 -11.0625 3.867188 -10.796875 3.296875 -10.265625 C 2.722656 -9.742188 2.4375 -9.023438 2.4375 -8.109375 C 2.4375 -7.191406 2.722656 -6.472656 3.296875 -5.953125 C 3.867188 -5.429688 4.632812 -5.171875 5.59375 -5.171875 Z M 9.9375 0.796875 C 9.9375 0.109375 9.625 -0.34375 9 -0.5625 C 8.382812 -0.78125 7.53125 -0.921875 6.4375 -0.984375 C 5.195312 -1.035156 4.3125 -1.109375 3.78125 -1.203125 C 3.125 -0.953125 2.613281 -0.628906 2.25 -0.234375 C 1.894531 0.160156 1.71875 0.609375 1.71875 1.109375 C 1.71875 1.929688 2.125 2.535156 2.9375 2.921875 C 3.75 3.316406 4.671875 3.515625 5.703125 3.515625 C 6.859375 3.515625 7.851562 3.269531 8.6875 2.78125 C 9.519531 2.289062 9.9375 1.628906 9.9375 0.796875 Z M 9.9375 0.796875 "/></g></g></g><g fill="#ffffff" fill-opacity="1"><g transform="translate(143.068654, 259.654681)"><g><path d="M 13.3125 -0.890625 C 13.625 -0.859375 13.78125 -0.71875 13.78125 -0.46875 L 13.78125 0 L 10.96875 0 L 10.96875 -7.46875 C 10.96875 -8.5625 10.71875 -9.414062 10.21875 -10.03125 C 9.71875 -10.65625 8.953125 -10.96875 7.921875 -10.96875 C 6.429688 -10.96875 5.128906 -10.234375 4.015625 -8.765625 L 4.015625 -0.9375 L 5.265625 -0.890625 C 5.554688 -0.878906 5.703125 -0.738281 5.703125 -0.46875 L 5.703125 0 L 1.21875 0 L 1.21875 -0.46875 C 1.21875 -0.738281 1.367188 -0.878906 1.671875 -0.890625 L 2.90625 -0.9375 L 2.90625 -10.78125 L 1.640625 -10.828125 C 1.484375 -10.835938 1.367188 -10.875 1.296875 -10.9375 C 1.234375 -11 1.203125 -11.101562 1.203125 -11.25 L 1.203125 -11.6875 L 3.515625 -11.6875 C 3.734375 -11.6875 3.851562 -11.59375 3.875 -11.40625 L 3.96875 -9.625 C 5.144531 -11.113281 6.554688 -11.859375 8.203125 -11.859375 C 9.460938 -11.859375 10.425781 -11.46875 11.09375 -10.6875 C 11.757812 -9.90625 12.09375 -8.832031 12.09375 -7.46875 L 12.09375 -0.9375 Z M 13.3125 -0.890625 "/></g></g></g><g fill="#ffffff" fill-opacity="1"><g transform="translate(157.837979, 259.654681)"><g><path d="M 10.5625 -0.890625 C 10.875 -0.859375 11.03125 -0.71875 11.03125 -0.46875 L 11.03125 0 L 9.046875 0 C 8.796875 0 8.644531 -0.109375 8.59375 -0.328125 L 8.4375 -1.828125 C 7.644531 -1.097656 6.941406 -0.578125 6.328125 -0.265625 C 5.710938 0.0351562 4.957031 0.1875 4.0625 0.1875 C 3.125 0.1875 2.367188 -0.0820312 1.796875 -0.625 C 1.222656 -1.164062 0.9375 -1.90625 0.9375 -2.84375 C 0.9375 -4.09375 1.6875 -4.988281 3.1875 -5.53125 C 4.695312 -6.082031 6.429688 -6.367188 8.390625 -6.390625 L 8.390625 -7.609375 C 8.390625 -8.703125 8.15625 -9.535156 7.6875 -10.109375 C 7.226562 -10.679688 6.535156 -10.96875 5.609375 -10.96875 C 5.046875 -10.96875 4.472656 -10.84375 3.890625 -10.59375 C 3.316406 -10.351562 2.859375 -10.0625 2.515625 -9.71875 C 2.335938 -9.550781 2.171875 -9.46875 2.015625 -9.46875 C 1.890625 -9.46875 1.789062 -9.535156 1.71875 -9.671875 L 1.53125 -10.03125 C 2.15625 -10.65625 2.804688 -11.117188 3.484375 -11.421875 C 4.171875 -11.734375 4.921875 -11.890625 5.734375 -11.890625 C 6.960938 -11.890625 7.894531 -11.5 8.53125 -10.71875 C 9.164062 -9.945312 9.484375 -8.910156 9.484375 -7.609375 L 9.484375 -0.921875 Z M 8.390625 -5.640625 C 6.691406 -5.617188 5.203125 -5.398438 3.921875 -4.984375 C 2.648438 -4.578125 2.015625 -3.867188 2.015625 -2.859375 C 2.015625 -2.160156 2.222656 -1.613281 2.640625 -1.21875 C 3.054688 -0.832031 3.625 -0.640625 4.34375 -0.640625 C 5.207031 -0.640625 5.921875 -0.789062 6.484375 -1.09375 C 7.046875 -1.394531 7.679688 -1.898438 8.390625 -2.609375 Z M 8.390625 -5.640625 "/></g></g></g><g fill="#ffffff" fill-opacity="1"><g transform="translate(169.883555, 259.654681)"><g/></g></g><g fill="#ffffff" fill-opacity="1"><g transform="translate(175.542385, 259.654681)"><g><path d="M 7.421875 -16.8125 C 8.066406 -16.8125 8.679688 -16.664062 9.265625 -16.375 C 9.847656 -16.09375 10.320312 -15.695312 10.6875 -15.1875 C 11.0625 -14.675781 11.265625 -14.109375 11.296875 -13.484375 L 10.6875 -13.390625 L 10.609375 -13.390625 C 10.441406 -13.390625 10.332031 -13.46875 10.28125 -13.625 C 10.144531 -14.28125 9.804688 -14.828125 9.265625 -15.265625 C 8.722656 -15.703125 8.109375 -15.921875 7.421875 -15.921875 C 6.484375 -15.921875 5.722656 -15.644531 5.140625 -15.09375 C 4.566406 -14.550781 4.28125 -13.847656 4.28125 -12.984375 C 4.28125 -12.296875 4.445312 -11.671875 4.78125 -11.109375 C 5.113281 -10.546875 5.617188 -9.925781 6.296875 -9.25 L 11.53125 -4.09375 C 12.207031 -5.1875 12.625 -6.359375 12.78125 -7.609375 C 12.84375 -7.828125 12.953125 -7.9375 13.109375 -7.9375 L 13.734375 -7.9375 C 13.722656 -7.1875 13.578125 -6.40625 13.296875 -5.59375 C 13.015625 -4.78125 12.65625 -4.054688 12.21875 -3.421875 L 15.6875 0 L 14.65625 0 C 14.539062 0 14.421875 -0.015625 14.296875 -0.046875 C 14.222656 -0.0664062 14.125 -0.140625 14 -0.265625 L 11.59375 -2.625 C 10.832031 -1.738281 9.941406 -1.046875 8.921875 -0.546875 C 7.898438 -0.0546875 6.828125 0.1875 5.703125 0.1875 C 4.847656 0.1875 4.054688 0 3.328125 -0.375 C 2.597656 -0.75 2.015625 -1.269531 1.578125 -1.9375 C 1.148438 -2.613281 0.9375 -3.382812 0.9375 -4.25 C 0.9375 -5.363281 1.316406 -6.367188 2.078125 -7.265625 C 2.835938 -8.171875 3.773438 -8.832031 4.890625 -9.25 C 4.328125 -9.894531 3.910156 -10.503906 3.640625 -11.078125 C 3.367188 -11.660156 3.234375 -12.289062 3.234375 -12.96875 C 3.234375 -13.75 3.414062 -14.425781 3.78125 -15 C 4.15625 -15.582031 4.660156 -16.03125 5.296875 -16.34375 C 5.941406 -16.65625 6.648438 -16.8125 7.421875 -16.8125 Z M 2.0625 -4.328125 C 2.0625 -3.617188 2.234375 -2.988281 2.578125 -2.4375 C 2.921875 -1.894531 3.382812 -1.472656 3.96875 -1.171875 C 4.5625 -0.878906 5.195312 -0.734375 5.875 -0.734375 C 7.875 -0.734375 9.5625 -1.566406 10.9375 -3.234375 L 5.421875 -8.671875 C 4.441406 -8.273438 3.632812 -7.6875 3 -6.90625 C 2.375 -6.125 2.0625 -5.265625 2.0625 -4.328125 Z M 2.0625 -4.328125 "/></g></g></g><g fill="#ffffff" fill-opacity="1"><g transform="translate(191.790991, 259.654681)"><g/></g></g><g fill="#ffffff" fill-opacity="1"><g transform="translate(197.449821, 259.654681)"><g><path d="M 17.359375 -0.890625 C 17.515625 -0.878906 17.625 -0.84375 17.6875 -0.78125 C 17.757812 -0.71875 17.796875 -0.613281 17.796875 -0.46875 L 17.796875 0 L 13.3125 0 L 13.3125 -0.46875 C 13.3125 -0.613281 13.347656 -0.71875 13.421875 -0.78125 C 13.492188 -0.84375 13.609375 -0.878906 13.765625 -0.890625 L 14.859375 -0.921875 L 13.109375 -5.453125 L 5.078125 -5.453125 L 3.3125 -0.9375 L 4.484375 -0.890625 C 4.640625 -0.878906 4.753906 -0.84375 4.828125 -0.78125 C 4.898438 -0.71875 4.9375 -0.613281 4.9375 -0.46875 L 4.9375 0 L 0.453125 0 L 0.453125 -0.46875 C 0.453125 -0.613281 0.484375 -0.71875 0.546875 -0.78125 C 0.617188 -0.84375 0.734375 -0.878906 0.890625 -0.890625 L 2.015625 -0.9375 L 8.453125 -16.625 L 9.71875 -16.625 L 16.15625 -0.9375 Z M 12.734375 -6.34375 L 9.46875 -14.421875 L 9.09375 -15.46875 L 8.71875 -14.421875 L 5.453125 -6.34375 Z M 12.734375 -6.34375 "/></g></g></g><g fill="#ffffff" fill-opacity="1"><g transform="translate(215.553406, 259.654681)"><g><path d="M 9.109375 -3.421875 C 9.109375 -2.328125 8.71875 -1.453125 7.9375 -0.796875 C 7.164062 -0.140625 6.1875 0.1875 5 0.1875 C 3.875 0.1875 2.722656 -0.03125 1.546875 -0.46875 L 1.546875 -3.3125 L 2.109375 -3.3125 C 2.441406 -3.3125 2.613281 -3.125 2.625 -2.75 L 2.765625 -1.015625 C 3.378906 -0.765625 4.140625 -0.640625 5.046875 -0.640625 C 5.910156 -0.640625 6.628906 -0.875 7.203125 -1.34375 C 7.773438 -1.8125 8.0625 -2.441406 8.0625 -3.234375 C 8.0625 -3.878906 7.796875 -4.367188 7.265625 -4.703125 C 6.742188 -5.046875 5.921875 -5.378906 4.796875 -5.703125 C 3.722656 -6.003906 2.910156 -6.375 2.359375 -6.8125 C 1.816406 -7.257812 1.546875 -7.894531 1.546875 -8.71875 C 1.546875 -9.34375 1.722656 -9.890625 2.078125 -10.359375 C 2.429688 -10.835938 2.898438 -11.207031 3.484375 -11.46875 C 4.078125 -11.726562 4.71875 -11.859375 5.40625 -11.859375 C 6.289062 -11.859375 7.320312 -11.65625 8.5 -11.25 L 8.5 -8.453125 L 7.9375 -8.453125 C 7.625 -8.453125 7.453125 -8.640625 7.421875 -9.015625 L 7.28125 -10.703125 C 6.664062 -10.910156 6.046875 -11.015625 5.421875 -11.015625 C 4.660156 -11.015625 4 -10.8125 3.4375 -10.40625 C 2.882812 -10 2.609375 -9.457031 2.609375 -8.78125 C 2.609375 -8.363281 2.738281 -8.007812 3 -7.71875 C 3.269531 -7.4375 3.617188 -7.207031 4.046875 -7.03125 C 4.484375 -6.851562 5.082031 -6.65625 5.84375 -6.4375 C 6.875 -6.132812 7.675781 -5.753906 8.25 -5.296875 C 8.820312 -4.835938 9.109375 -4.210938 9.109375 -3.421875 Z M 9.109375 -3.421875 "/></g></g></g><g fill="#ffffff" fill-opacity="1"><g transform="translate(225.579651, 259.654681)"><g><path d="M 9.109375 -3.421875 C 9.109375 -2.328125 8.71875 -1.453125 7.9375 -0.796875 C 7.164062 -0.140625 6.1875 0.1875 5 0.1875 C 3.875 0.1875 2.722656 -0.03125 1.546875 -0.46875 L 1.546875 -3.3125 L 2.109375 -3.3125 C 2.441406 -3.3125 2.613281 -3.125 2.625 -2.75 L 2.765625 -1.015625 C 3.378906 -0.765625 4.140625 -0.640625 5.046875 -0.640625 C 5.910156 -0.640625 6.628906 -0.875 7.203125 -1.34375 C 7.773438 -1.8125 8.0625 -2.441406 8.0625 -3.234375 C 8.0625 -3.878906 7.796875 -4.367188 7.265625 -4.703125 C 6.742188 -5.046875 5.921875 -5.378906 4.796875 -5.703125 C 3.722656 -6.003906 2.910156 -6.375 2.359375 -6.8125 C 1.816406 -7.257812 1.546875 -7.894531 1.546875 -8.71875 C 1.546875 -9.34375 1.722656 -9.890625 2.078125 -10.359375 C 2.429688 -10.835938 2.898438 -11.207031 3.484375 -11.46875 C 4.078125 -11.726562 4.71875 -11.859375 5.40625 -11.859375 C 6.289062 -11.859375 7.320312 -11.65625 8.5 -11.25 L 8.5 -8.453125 L 7.9375 -8.453125 C 7.625 -8.453125 7.453125 -8.640625 7.421875 -9.015625 L 7.28125 -10.703125 C 6.664062 -10.910156 6.046875 -11.015625 5.421875 -11.015625 C 4.660156 -11.015625 4 -10.8125 3.4375 -10.40625 C 2.882812 -10 2.609375 -9.457031 2.609375 -8.78125 C 2.609375 -8.363281 2.738281 -8.007812 3 -7.71875 C 3.269531 -7.4375 3.617188 -7.207031 4.046875 -7.03125 C 4.484375 -6.851562 5.082031 -6.65625 5.84375 -6.4375 C 6.875 -6.132812 7.675781 -5.753906 8.25 -5.296875 C 8.820312 -4.835938 9.109375 -4.210938 9.109375 -3.421875 Z M 9.109375 -3.421875 "/></g></g></g><g fill="#ffffff" fill-opacity="1"><g transform="translate(235.605896, 259.654681)"><g><path d="M 6.25 -11.890625 C 7.90625 -11.890625 9.203125 -11.335938 10.140625 -10.234375 C 11.078125 -9.128906 11.546875 -7.664062 11.546875 -5.84375 C 11.546875 -4.007812 11.078125 -2.550781 10.140625 -1.46875 C 9.203125 -0.394531 7.90625 0.140625 6.25 0.140625 C 4.550781 0.140625 3.234375 -0.398438 2.296875 -1.484375 C 1.359375 -2.578125 0.890625 -4.03125 0.890625 -5.84375 C 0.890625 -7.664062 1.363281 -9.128906 2.3125 -10.234375 C 3.257812 -11.335938 4.570312 -11.890625 6.25 -11.890625 Z M 6.25 -0.734375 C 7.625 -0.734375 8.660156 -1.1875 9.359375 -2.09375 C 10.054688 -3.007812 10.40625 -4.257812 10.40625 -5.84375 C 10.40625 -7.414062 10.054688 -8.664062 9.359375 -9.59375 C 8.660156 -10.519531 7.625 -10.984375 6.25 -10.984375 C 4.851562 -10.984375 3.804688 -10.523438 3.109375 -9.609375 C 2.410156 -8.703125 2.0625 -7.445312 2.0625 -5.84375 C 2.0625 -4.257812 2.40625 -3.007812 3.09375 -2.09375 C 3.789062 -1.1875 4.84375 -0.734375 6.25 -0.734375 Z M 6.25 -0.734375 "/></g></g></g><g fill="#ffffff" fill-opacity="1"><g transform="translate(248.050635, 259.654681)"><g><path d="M 9.90625 -1.5 C 9.46875 -0.957031 8.882812 -0.539062 8.15625 -0.25 C 7.425781 0.03125 6.679688 0.171875 5.921875 0.171875 C 4.890625 0.171875 3.992188 -0.0859375 3.234375 -0.609375 C 2.472656 -1.140625 1.890625 -1.859375 1.484375 -2.765625 C 1.085938 -3.679688 0.890625 -4.707031 0.890625 -5.84375 C 0.890625 -7.019531 1.09375 -8.0625 1.5 -8.96875 C 1.90625 -9.875 2.507812 -10.582031 3.3125 -11.09375 C 4.113281 -11.601562 5.066406 -11.859375 6.171875 -11.859375 C 7.160156 -11.859375 8.257812 -11.613281 9.46875 -11.125 L 9.46875 -8.203125 L 8.90625 -8.203125 C 8.59375 -8.203125 8.421875 -8.390625 8.390625 -8.765625 C 8.390625 -8.804688 8.375 -8.988281 8.34375 -9.3125 C 8.3125 -9.632812 8.28125 -10.0625 8.25 -10.59375 C 7.476562 -10.851562 6.8125 -10.984375 6.25 -10.984375 C 4.882812 -10.984375 3.84375 -10.515625 3.125 -9.578125 C 2.40625 -8.640625 2.046875 -7.394531 2.046875 -5.84375 C 2.046875 -4.3125 2.394531 -3.078125 3.09375 -2.140625 C 3.800781 -1.203125 4.796875 -0.734375 6.078125 -0.734375 C 6.640625 -0.734375 7.195312 -0.832031 7.75 -1.03125 C 8.300781 -1.238281 8.734375 -1.5 9.046875 -1.8125 C 9.171875 -1.9375 9.285156 -2 9.390625 -2 C 9.484375 -2 9.554688 -1.957031 9.609375 -1.875 Z M 9.90625 -1.5 "/></g></g></g><g fill="#ffffff" fill-opacity="1"><g transform="translate(258.828261, 259.654681)"><g><path d="M 3.421875 -14.671875 C 3.128906 -14.671875 2.882812 -14.769531 2.6875 -14.96875 C 2.488281 -15.175781 2.390625 -15.429688 2.390625 -15.734375 C 2.390625 -16.015625 2.488281 -16.253906 2.6875 -16.453125 C 2.882812 -16.648438 3.128906 -16.75 3.421875 -16.75 C 3.703125 -16.75 3.941406 -16.648438 4.140625 -16.453125 C 4.335938 -16.253906 4.4375 -16.015625 4.4375 -15.734375 C 4.4375 -15.429688 4.335938 -15.175781 4.140625 -14.96875 C 3.941406 -14.769531 3.703125 -14.671875 3.421875 -14.671875 Z M 5.21875 -0.890625 C 5.53125 -0.859375 5.6875 -0.71875 5.6875 -0.46875 L 5.6875 0 L 1.171875 0 L 1.171875 -0.46875 C 1.171875 -0.71875 1.328125 -0.859375 1.640625 -0.890625 L 2.859375 -0.9375 L 2.859375 -10.75 L 1.640625 -10.796875 C 1.328125 -10.828125 1.171875 -10.96875 1.171875 -11.21875 L 1.171875 -11.6875 L 4 -11.6875 L 4 -0.9375 Z M 5.21875 -0.890625 "/></g></g></g><g fill="#ffffff" fill-opacity="1"><g transform="translate(265.449802, 259.654681)"><g><path d="M 6.171875 -11.890625 C 7.597656 -11.890625 8.722656 -11.410156 9.546875 -10.453125 C 10.367188 -9.492188 10.78125 -8.253906 10.78125 -6.734375 C 10.78125 -6.441406 10.671875 -6.296875 10.453125 -6.296875 L 2.015625 -6.296875 C 2.015625 -4.554688 2.375 -3.191406 3.09375 -2.203125 C 3.820312 -1.222656 4.90625 -0.734375 6.34375 -0.734375 C 6.914062 -0.734375 7.519531 -0.832031 8.15625 -1.03125 C 8.789062 -1.238281 9.289062 -1.5 9.65625 -1.8125 C 9.78125 -1.9375 9.90625 -2 10.03125 -2 C 10.132812 -2 10.210938 -1.957031 10.265625 -1.875 L 10.5625 -1.5 C 10.15625 -1 9.53125 -0.597656 8.6875 -0.296875 C 7.851562 -0.00390625 7.039062 0.140625 6.25 0.140625 C 4.507812 0.140625 3.179688 -0.429688 2.265625 -1.578125 C 1.347656 -2.734375 0.890625 -4.234375 0.890625 -6.078125 C 0.890625 -7.191406 1.101562 -8.1875 1.53125 -9.0625 C 1.96875 -9.9375 2.582031 -10.625 3.375 -11.125 C 4.175781 -11.632812 5.109375 -11.890625 6.171875 -11.890625 Z M 6.203125 -11.03125 C 5.015625 -11.03125 4.0625 -10.675781 3.34375 -9.96875 C 2.632812 -9.257812 2.207031 -8.273438 2.0625 -7.015625 L 9.765625 -7.015625 C 9.765625 -8.242188 9.441406 -9.21875 8.796875 -9.9375 C 8.148438 -10.664062 7.285156 -11.03125 6.203125 -11.03125 Z M 6.15625 -13.828125 C 6.09375 -13.765625 6.03125 -13.710938 5.96875 -13.671875 C 5.90625 -13.640625 5.828125 -13.625 5.734375 -13.625 L 5.046875 -13.625 L 6.90625 -16.4375 C 7 -16.582031 7.097656 -16.679688 7.203125 -16.734375 C 7.304688 -16.785156 7.4375 -16.8125 7.59375 -16.8125 L 8.6875 -16.8125 Z M 6.15625 -13.828125 "/></g></g></g><g fill="#ffffff" fill-opacity="1"><g transform="translate(277.119679, 259.654681)"><g><path d="M 9.109375 -3.421875 C 9.109375 -2.328125 8.71875 -1.453125 7.9375 -0.796875 C 7.164062 -0.140625 6.1875 0.1875 5 0.1875 C 3.875 0.1875 2.722656 -0.03125 1.546875 -0.46875 L 1.546875 -3.3125 L 2.109375 -3.3125 C 2.441406 -3.3125 2.613281 -3.125 2.625 -2.75 L 2.765625 -1.015625 C 3.378906 -0.765625 4.140625 -0.640625 5.046875 -0.640625 C 5.910156 -0.640625 6.628906 -0.875 7.203125 -1.34375 C 7.773438 -1.8125 8.0625 -2.441406 8.0625 -3.234375 C 8.0625 -3.878906 7.796875 -4.367188 7.265625 -4.703125 C 6.742188 -5.046875 5.921875 -5.378906 4.796875 -5.703125 C 3.722656 -6.003906 2.910156 -6.375 2.359375 -6.8125 C 1.816406 -7.257812 1.546875 -7.894531 1.546875 -8.71875 C 1.546875 -9.34375 1.722656 -9.890625 2.078125 -10.359375 C 2.429688 -10.835938 2.898438 -11.207031 3.484375 -11.46875 C 4.078125 -11.726562 4.71875 -11.859375 5.40625 -11.859375 C 6.289062 -11.859375 7.320312 -11.65625 8.5 -11.25 L 8.5 -8.453125 L 7.9375 -8.453125 C 7.625 -8.453125 7.453125 -8.640625 7.421875 -9.015625 L 7.28125 -10.703125 C 6.664062 -10.910156 6.046875 -11.015625 5.421875 -11.015625 C 4.660156 -11.015625 4 -10.8125 3.4375 -10.40625 C 2.882812 -10 2.609375 -9.457031 2.609375 -8.78125 C 2.609375 -8.363281 2.738281 -8.007812 3 -7.71875 C 3.269531 -7.4375 3.617188 -7.207031 4.046875 -7.03125 C 4.484375 -6.851562 5.082031 -6.65625 5.84375 -6.4375 C 6.875 -6.132812 7.675781 -5.753906 8.25 -5.296875 C 8.820312 -4.835938 9.109375 -4.210938 9.109375 -3.421875 Z M 9.109375 -3.421875 "/></g></g></g></svg>